<svg viewBox="0 0 480 280" xmlns="http://www.w3.org/2000/svg">
  <defs>
    <linearGradient id="bg" x1="0" y1="0" x2="0" y2="1">
      <stop offset="0%" stop-color="#1a1714"/>
      <stop offset="100%" stop-color="#0f0e0d"/>
    </linearGradient>
  </defs>
  <rect width="480" height="280" fill="url(#bg)" rx="12"/>
  <rect x="16" y="16" width="448" height="248" fill="#211d1a" rx="8"/>
  <!-- Titlebar -->
  <rect x="16" y="16" width="448" height="28" fill="#141210" rx="8 8 0 0"/>
  <circle cx="444" cy="30" r="6" fill="#e81123" opacity="0.9"/>
  <rect x="416" y="28" width="12" height="4" rx="1" fill="#81756d"/>
  <rect x="416" y="24" width="12" height="12" rx="2" fill="none" stroke="#81756d" stroke-width="1.5"/>
  <!-- Logo -->
  <path d="M36,30 Q44,20 52,27 Q60,34 68,24" stroke="#ff6b2b" stroke-width="2.5" fill="none" stroke-linecap="round" opacity="0.7"/>
  <path d="M36,30 Q44,20 52,27 Q60,34 68,24" stroke="#ff9d5c" stroke-width="1.5" fill="none" stroke-linecap="round"/>
  <text x="78" y="35" fill="#f0e5d8" font-family="Inter,system-ui,sans-serif" font-size="13" font-weight="600">Lava</text>
  <!-- Sidebar nav -->
  <rect x="16" y="44" width="140" height="220" fill="#151311"/>
  <circle cx="40" cy="62" r="4" fill="#ff6b2b"/>
  <rect x="50" y="59" width="40" height="7" rx="2" fill="#f0e5d8" opacity="0.6"/>
  <rect x="30" y="80" width="100" height="24" rx="4" fill="#261f1a"/>
  <rect x="40" y="88" width="50" height="5" rx="2" fill="#f0e5d8" opacity="0.4"/>
  <rect x="30" y="110" width="100" height="24" rx="4" fill="#1a1714" opacity="0.5"/>
  <rect x="40" y="118" width="50" height="5" rx="2" fill="#81756d" opacity="0.5"/>
  <rect x="30" y="140" width="100" height="24" rx="4" fill="#1a1714" opacity="0.5"/>
  <rect x="40" y="148" width="50" height="5" rx="2" fill="#81756d" opacity="0.5"/>
  <!-- Chat area -->
  <rect x="170" y="140" width="270" height="8" rx="4" fill="#f0e5d8" opacity="0.7"/>
  <rect x="180" y="180" width="250" height="8" rx="4" fill="#f0e5d8" opacity="0.5"/>
  <rect x="190" y="220" width="230" height="8" rx="4" fill="#ff6b2b" opacity="0.4"/>
  <!-- User message -->
  <rect x="290" y="58" width="110" height="24" rx="8" fill="#29231f"/>
  <rect x="310" y="67" width="70" height="5" rx="2" fill="#f0e5d8" opacity="0.5"/>
  <!-- Assistant message -->
  <rect x="180" y="90" width="160" height="24" rx="8" fill="#211d1a" stroke="#2a2521" stroke-width="1"/>
  <rect x="194" y="99" width="130" height="5" rx="2" fill="#ff6b2b" opacity="0.3"/>
  <!-- Input -->
  <rect x="170" y="256" width="280" height="24" rx="6" fill="#171412" stroke="#3a312b" stroke-width="1"/>
  <rect x="390" y="258" width="52" height="20" rx="4" fill="#d45a22"/>
  <text x="416" y="272" fill="white" font-family="Inter,system-ui,sans-serif" font-size="9" font-weight="600" text-anchor="middle">Send</text>
</svg>