<svg viewBox="0 0 480 280" xmlns="http://www.w3.org/2000/svg">
  <defs>
    <linearGradient id="bg3" x1="0" y1="0" x2="0" y2="1">
      <stop offset="0%" stop-color="#1a1714"/>
      <stop offset="100%" stop-color="#0f0e0d"/>
    </linearGradient>
  </defs>
  <rect width="480" height="280" fill="url(#bg3)" rx="12"/>
  <rect x="16" y="16" width="448" height="248" fill="#211d1a" rx="8"/>
  <!-- Titlebar -->
  <rect x="16" y="16" width="448" height="28" fill="#141210" rx="8 8 0 0"/>
  <text x="36" y="35" fill="#f0e5d8" font-family="Inter,system-ui,sans-serif" font-size="13" font-weight="600">Notes</text>
  <!-- Left panel - note list -->
  <rect x="16" y="44" width="140" height="220" fill="#151311"/>
  <rect x="30" y="58" width="110" height="30" rx="4" fill="#261f1a" stroke="#d45a2240" stroke-width="1"/>
  <rect x="40" y="66" width="70" height="5" rx="2" fill="#f0e5d8" opacity="0.5"/>
  <rect x="40" y="76" width="50" height="3" rx="1" fill="#81756d" opacity="0.4"/>
  <rect x="30" y="94" width="110" height="30" rx="4" fill="#1a1714"/>
  <rect x="40" y="102" width="60" height="5" rx="2" fill="#81756d" opacity="0.3"/>
  <rect x="40" y="112" width="45" height="3" rx="1" fill="#81756d" opacity="0.2"/>
  <!-- Right panel - note content -->
  <rect x="170" y="48" width="280" height="216" rx="0" fill="#211d1a"/>
  <!-- Markdown rendered note -->
  <rect x="182" y="56" width="120" height="8" rx="3" fill="#f0e5d8" opacity="0.6"/>
  <rect x="182" y="76" width="250" height="5" rx="2" fill="#baaa9b" opacity="0.3"/>
  <rect x="182" y="88" width="230" height="5" rx="2" fill="#baaa9b" opacity="0.3"/>
  <rect x="182" y="100" width="185" height="5" rx="2" fill="#baaa9b" opacity="0.3"/>
  <rect x="182" y="120" width="90" height="7" rx="3" fill="#ff6b2b" opacity="0.5"/>
  <rect x="182" y="136" width="260" height="5" rx="2" fill="#baaa9b" opacity="0.3"/>
  <rect x="182" y="148" width="200" height="5" rx="2" fill="#baaa9b" opacity="0.3"/>
  <!-- Bullet list -->
  <circle cx="190" cy="170" r="2" fill="#ff6b2b" opacity="0.6"/>
  <rect x="198" y="167" width="130" height="5" rx="2" fill="#baaa9b" opacity="0.3"/>
  <circle cx="190" cy="184" r="2" fill="#ff6b2b" opacity="0.6"/>
  <rect x="198" y="181" width="160" height="5" rx="2" fill="#baaa9b" opacity="0.3"/>
  <circle cx="190" cy="198" r="2" fill="#ff6b2b" opacity="0.6"/>
  <rect x="198" y="195" width="100" height="5" rx="2" fill="#baaa9b" opacity="0.3"/>
</svg>