<svg viewBox="0 0 480 280" xmlns="http://www.w3.org/2000/svg">
  <defs>
    <linearGradient id="bg5" x1="0" y1="0" x2="0" y2="1">
      <stop offset="0%" stop-color="#1a1714"/>
      <stop offset="100%" stop-color="#0f0e0d"/>
    </linearGradient>
  </defs>
  <rect width="480" height="280" fill="url(#bg5)" rx="12"/>
  <!-- Three floating tool cards -->
  <!-- Terminal -->
  <rect x="30" y="40" width="130" height="200" rx="10" fill="#211d1a" stroke="#3a312b" stroke-width="1"/>
  <rect x="30" y="40" width="130" height="28" rx="10 10 0 0" fill="#141210"/>
  <circle cx="46" cy="54" r="4" fill="#ff9d5c" opacity="0.8"/>
  <circle cx="58" cy="54" r="4" fill="#ff6b2b" opacity="0.6"/>
  <circle cx="70" cy="54" r="4" fill="#81756d" opacity="0.4"/>
  <rect x="42" y="82" width="80" height="6" rx="2" fill="#81756d" opacity="0.3"/>
  <rect x="42" y="96" width="100" height="6" rx="2" fill="#ff6b2b" opacity="0.3"/>
  <rect x="42" y="110" width="70" height="6" rx="2" fill="#81756d" opacity="0.2"/>
  <rect x="42" y="130" width="90" height="6" rx="2" fill="#baaa9b" opacity="0.2"/>
  <rect x="42" y="144" width="60" height="6" rx="2" fill="#baaa9b" opacity="0.2"/>
  <text x="95" y="210" fill="#81756d" font-family="Inter,system-ui,sans-serif" font-size="9" text-anchor="middle" font-weight="600">Terminal</text>
  <!-- Files -->
  <rect x="175" y="20" width="130" height="200" rx="10" fill="#211d1a" stroke="#3a312b" stroke-width="1" transform="translate(0,20)"/>
  <rect x="175" y="40" width="130" height="28" rx="10 10 0 0" fill="#141210" transform="translate(0,0)"/>
  <circle cx="191" cy="54" r="4" fill="#ff9d5c" opacity="0.8"/>
  <circle cx="203" cy="54" r="4" fill="#ff6b2b" opacity="0.6"/>
  <circle cx="215" cy="54" r="4" fill="#81756d" opacity="0.4"/>
  <!-- File tree -->
  <rect x="190" y="80" width="16" height="12" rx="2" fill="#3a312b"/>
  <rect x="210" y="82" width="70" height="5" rx="2" fill="#81756d" opacity="0.3"/>
  <rect x="200" y="100" width="14" height="10" rx="2" fill="#29231f"/>
  <rect x="220" y="102" width="60" height="5" rx="2" fill="#81756d" opacity="0.3"/>
  <rect x="200" y="116" width="14" height="10" rx="2" fill="#29231f"/>
  <rect x="220" y="118" width="80" height="5" rx="2" fill="#ff6b2b" opacity="0.4"/>
  <rect x="190" y="134" width="16" height="12" rx="2" fill="#3a312b"/>
  <rect x="210" y="136" width="50" height="5" rx="2" fill="#81756d" opacity="0.3"/>
  <text x="240" y="220" fill="#81756d" font-family="Inter,system-ui,sans-serif" font-size="9" text-anchor="middle" font-weight="600">Files</text>
  <!-- Graphs -->
  <rect x="320" y="40" width="130" height="200" rx="10" fill="#211d1a" stroke="#3a312b" stroke-width="1" transform="translate(0,0)"/>
  <rect x="320" y="40" width="130" height="28" rx="10 10 0 0" fill="#141210"/>
  <circle cx="336" cy="54" r="4" fill="#ff9d5c" opacity="0.8"/>
  <circle cx="348" cy="54" r="4" fill="#ff6b2b" opacity="0.6"/>
  <circle cx="360" cy="54" r="4" fill="#81756d" opacity="0.4"/>
  <!-- Mini flowchart -->
  <rect x="355" y="80" width="60" height="22" rx="4" fill="#29231f" stroke="#d45a22" stroke-width="1"/>
  <polygon points="385,112 395,122 385,132 375,122" fill="#1a1714" stroke="#ff6b2b" stroke-width="1"/>
  <line x1="385" y1="102" x2="385" y2="112" stroke="#81756d" stroke-width="1"/>
  <rect x="340" y="140" width="46" height="20" rx="4" fill="#29231f" stroke="#3a312b" stroke-width="1"/>
  <rect x="385" y="140" width="46" height="20" rx="4" fill="#29231f" stroke="#3a312b" stroke-width="1"/>
  <line x1="375" y1="122" x2="363" y2="140" stroke="#81756d" stroke-width="1"/>
  <line x1="395" y1="122" x2="408" y2="140" stroke="#81756d" stroke-width="1"/>
  <text x="385" y="200" fill="#d45a22" font-family="Inter,system-ui,sans-serif" font-size="8" text-anchor="middle">Open →</text>
  <text x="385" y="225" fill="#81756d" font-family="Inter,system-ui,sans-serif" font-size="9" text-anchor="middle" font-weight="600">Graphs</text>
</svg>